HIERARCHY
ROOT hip
{
  OFFSET 0 0 0
  CHANNELS 6 Xposition Yposition Zposition Zrotation Yrotation Xrotation
  JOINT abdomen
  {
    OFFSET 0 20.6881 -0.73152
    CHANNELS 3 Zrotation Xrotation Yrotation
    JOINT chest
    {
      OFFSET 0 11.7043 -0.48768
      CHANNELS 3 Zrotation Xrotation Yrotation
      JOINT neck
      {
        OFFSET 0 22.1894 -2.19456
        CHANNELS 3 Zrotation Xrotation Yrotation
        JOINT head
        {
          OFFSET -0.24384 7.07133 1.2192
          CHANNELS 3 Zrotation Xrotation Yrotation
          JOINT leftEye
          {
            OFFSET 4.14528 8.04674 8.04672
            CHANNELS 3 Zrotation Xrotation Yrotation
            End Site
            {
              OFFSET 1 0 0
            }
          }
          JOINT rightEye
          {
            OFFSET -3.6576 8.04674 8.04672
            CHANNELS 3 Zrotation Xrotation Yrotation
            End Site
            {
              OFFSET 1 0 0
            }
          }
        }
      }
      JOINT rCollar
      {
        OFFSET -2.68224 19.2634 -4.8768
        CHANNELS 3 Zrotation Xrotation Yrotation
        JOINT rShldr
        {
          OFFSET -8.77824 -1.95073 1.46304
          CHANNELS 3 Zrotation Xrotation Yrotation
          JOINT rForeArm
          {
            OFFSET -28.1742 -1.7115 0.48768
            CHANNELS 3 Zrotation Xrotation Yrotation
            JOINT rHand
            {
              OFFSET -22.5879 0.773209 7.07136
              CHANNELS 3 Zrotation Xrotation Yrotation
              JOINT rThumb1
              {
                OFFSET -1.2192 -0.487915 3.41376
                CHANNELS 3 Zrotation Xrotation Yrotation
                JOINT rThumb2
                {
                  OFFSET -3.37035 -0.52449 3.41376
                  CHANNELS 3 Zrotation Xrotation Yrotation
                  End Site
                  {
                    OFFSET -1.78271 -1.18214 1.43049
                  }
                }
              }
              JOINT rIndex1
              {
                OFFSET -7.75947 0.938293 5.60832
                CHANNELS 3 Zrotation Xrotation Yrotation
                JOINT rIndex2
                {
                  OFFSET -2.54057 -0.884171 1.56538
                  CHANNELS 3 Zrotation Xrotation Yrotation
                  End Site
                  {
                    OFFSET -1.62519 -0.234802 1.16502
                  }
                }
              }
              JOINT rMid1
              {
                OFFSET -8.24714 1.18213 3.41376
                CHANNELS 3 Zrotation Xrotation Yrotation
                JOINT rMid2
                {
                  OFFSET -3.10165 -0.590103 1.0647
                  CHANNELS 3 Zrotation Xrotation Yrotation
                  End Site
                  {
                    OFFSET -2.48547 -0.328903 0.83742
                  }
                }
              }
              JOINT rRing1
              {
                OFFSET -8.82822 0.546677 1.51678
                CHANNELS 3 Zrotation Xrotation Yrotation
                JOINT rRing2
                {
                  OFFSET -2.60934 -0.819778 -0.0198488
                  CHANNELS 3 Zrotation Xrotation Yrotation
                  End Site
                  {
                    OFFSET -2.33842 -0.294052 0.168128
                  }
                }
              }
              JOINT rPinky1
              {
                OFFSET -8.27202 -0.0477905 -0.4584
                CHANNELS 3 Zrotation Xrotation Yrotation
                JOINT rPinky2
                {
                  OFFSET -1.82734 -0.647385 -0.700984
                  CHANNELS 3 Zrotation Xrotation Yrotation
                  End Site
                  {
                    OFFSET -1.69225 -0.51767 -0.607171
                  }
                }
              }
            }
          }
        }
      }
      JOINT lCollar
      {
        OFFSET 2.68224 19.2634 -4.8768
        CHANNELS 3 Zrotation Xrotation Yrotation
        JOINT lShldr
        {
          OFFSET 8.77824 -1.95073 1.46304
          CHANNELS 3 Zrotation Xrotation Yrotation
          JOINT lForeArm
          {
            OFFSET 28.1742 -1.7115 0.48768
            CHANNELS 3 Zrotation Xrotation Yrotation
            JOINT lHand
            {
              OFFSET 22.5879 0.773209 7.07136
              CHANNELS 3 Zrotation Xrotation Yrotation
              JOINT lThumb1
              {
                OFFSET 1.2192 -0.487915 3.41376
                CHANNELS 3 Zrotation Xrotation Yrotation
                JOINT lThumb2
                {
                  OFFSET 3.37035 -0.52449 3.41376
                  CHANNELS 3 Zrotation Xrotation Yrotation
                  End Site
                  {
                    OFFSET 1.78271 -1.18214 1.43049
                  }
                }
              }
              JOINT lIndex1
              {
                OFFSET 7.75947 0.938293 5.60832
                CHANNELS 3 Zrotation Xrotation Yrotation
                JOINT lIndex2
                {
                  OFFSET 2.54057 -0.884171 1.56538
                  CHANNELS 3 Zrotation Xrotation Yrotation
                  End Site
                  {
                    OFFSET 1.62519 -0.234802 1.16502
                  }
                }
              }
              JOINT lMid1
              {
                OFFSET 8.24714 1.18213 3.41376
                CHANNELS 3 Zrotation Xrotation Yrotation
                JOINT lMid2
                {
                  OFFSET 3.10165 -0.590103 1.0647
                  CHANNELS 3 Zrotation Xrotation Yrotation
                  End Site
                  {
                    OFFSET 2.48547 -0.328903 0.83742
                  }
                }
              }
              JOINT lRing1
              {
                OFFSET 8.82822 0.546677 1.51678
                CHANNELS 3 Zrotation Xrotation Yrotation
                JOINT lRing2
                {
                  OFFSET 2.60934 -0.819778 -0.0198488
                  CHANNELS 3 Zrotation Xrotation Yrotation
                  End Site
                  {
                    OFFSET 2.33842 -0.294052 0.168128
                  }
                }
              }
              JOINT lPinky1
              {
                OFFSET 8.27202 -0.0477905 -0.4584
                CHANNELS 3 Zrotation Xrotation Yrotation
                JOINT lPinky2
                {
                  OFFSET 1.82734 -0.647385 -0.700984
                  CHANNELS 3 Zrotation Xrotation Yrotation
                  End Site
                  {
                    OFFSET 1.69225 -0.51767 -0.607171
                  }
                }
              }
            }
          }
        }
      }
    }
  }
  JOINT rButtock
  {
    OFFSET -8.77824 4.35084 1.2192
    CHANNELS 3 Zrotation Xrotation Yrotation
    JOINT rThigh
    {
      OFFSET 0 -1.70687 -2.19456
      CHANNELS 3 Zrotation Xrotation Yrotation
      JOINT rShin
      {
        OFFSET 0 -36.8199 0.73152
        CHANNELS 3 Zrotation Xrotation Yrotation
        JOINT rFoot
        {
          OFFSET 0.73152 -45.1104 -5.12064
          CHANNELS 3 Zrotation Xrotation Yrotation
          End Site
          {
            OFFSET -1.1221 -3.69964 12.103
          }
        }
      }
    }
  }
  JOINT lButtock
  {
    OFFSET 8.77824 4.35084 1.2192
    CHANNELS 3 Zrotation Xrotation Yrotation
    JOINT lThigh
    {
      OFFSET 0 -1.70687 -2.19456
      CHANNELS 3 Zrotation Xrotation Yrotation
      JOINT lShin
      {
        OFFSET 0 -36.8199 0.73152
        CHANNELS 3 Zrotation Xrotation Yrotation
        JOINT lFoot
        {
          OFFSET -0.73152 -45.1104 -5.12064
          CHANNELS 3 Zrotation Xrotation Yrotation
          End Site
          {
            OFFSET 1.1221 -3.69964 12.103
          }
        }
      }
    }
  }
}
MOTION
Frames:	4
Frame Time:	0.03333
1.7643999728853756 75.30730254310777 0.41300000800652964 -1.7070999145507812 17.20800018310547 -3.041008710861206 -9.013039588928223 15.105499267578125 0.6155898571014404 3.2013802528381348 -16.517698287963867 0.24192994832992554 -7.320970058441162 8.671720504760742 -3.2333896160125732 2.6569595336914062 -9.273040771484375 -5.125540256500244 -0.0 0.0 -0.0 -0.0 0.0 -0.0 -8.688069456030088e-15 5.53206958730677e-15 2.187709919904829e-13 55.51369857788086 -18.217004776000977 49.151100158691406 -17.85569953918457 -54.982505798339844 119.1820068359375 -16.1304988861084 -70.27899932861328 -22.84749984741211 4.0370501386277624e-10 7.928330214568291e-11 3.641949797295041e-10 6.698039345387485e-10 1.4873699494266646e-10 6.392239515484732e-10 4.037089829100893e-10 7.928569606407976e-11 3.6419298132805977e-10 7.730909824371338 5.474879741668701 0.4173140823841095 4.037059853079228e-10 7.92846968633576e-11 3.6419897653239275e-10 2.9055399894714355 0.9651829600334167 0.10290199518203735 4.0371797571658874e-10 7.928430134640507e-11 3.6419298132805977e-10 10.27859878540039 0.73180091381073 0.025912316516041756 4.037019607494585e-10 7.928249723399006e-11 3.6420197413455924e-10 2.221669912338257 -0.733487069606781 -0.208919957280159 -8.777228991091023e-15 5.5343303182429915e-15 2.185369940566062e-13 -57.46979522705078 20.797100067138672 -45.791603088378906 28.375099182128906 -37.74989700317383 -79.87369537353516 0.0012744000414386392 0.5424830317497253 -0.07584919780492783 -8.978899290745801e-10 -8.266119733146837e-11 9.327689731719602e-10 -1.5543299980436132e-09 -1.465279980683576e-10 1.6181099793399767e-09 -8.978959797900643e-10 -8.266890644259561e-11 9.32792953989292e-10 -7.730909824371338 5.474879741668701 -0.4173140823841095 -8.978909282753023e-10 -8.266039935866942e-11 9.32773969175571e-10 -2.9055399894714355 0.9651829600334167 -0.10290199518203735 -8.97899976592953e-10 -8.266219653219053e-11 9.327779659784596e-10 -10.27859878540039 0.73180091381073 -0.025912316516041756 -8.978849885821205e-10 -8.266039935866942e-11 9.327729699748488e-10 -2.221669912338257 -0.733487069606781 0.208919957280159 -2.0321699480147914e-16 0.0 -3.8825099822884138e-19 -102.2040023803711 -42.499603271484375 -101.77999877929688 -177.9010009765625 37.346595764160156 -179.10699462890625 -23.95709991455078 59.05350112915039 38.568599700927734 2.0321699480147914e-16 0.0 3.8825099822884138e-19 4.170760154724121 -33.10090255737305 11.65310001373291 0.7737859487533569 58.6880989074707 -1.9157702922821045 2.849480152130127 -19.07539939880371 5.302490711212158
3.46329992573421 75.8923014153302 0.8010000028665052 -0.4018999934196472 16.38519859313965 -4.054991722106934 -9.38174819946289 15.560898780822754 4.041049480438232 2.772559404373169 -16.72930145263672 1.2286100387573242 -8.575181007385254 9.881209373474121 -5.583529949188232 4.506531238555908 -9.700910568237305 -9.50471019744873 -0.0 0.0 -0.0 -0.0 0.0 -0.0 -9.106449860678267e-14 4.1471898614905967e-14 3.3958496821820394e-13 66.64330291748047 -13.572199821472168 55.3291015625 -15.864296913146973 -55.775306701660156 123.5719985961914 -14.376896858215332 -69.0724105834961 -21.06029510498047 -1.3882799076991859e-10 2.784280028755859e-10 5.317130069570908e-10 -2.7262198054600617e-10 4.833279887428432e-10 9.113069743271751e-10 -1.3882299476630777e-10 2.784300012770302e-10 5.317079554423287e-10 7.730909824371338 5.474879741668701 0.4173140823841095 -1.3882600624626207e-10 2.784280028755859e-10 5.31715949048106e-10 2.9055399894714355 0.9651829600334167 0.10290199518203735 -1.3881600036125263e-10 2.784280028755859e-10 5.317120077563686e-10 10.27859878540039 0.73180091381073 0.025912316516041756 -1.388299891713629e-10 2.784269759192881e-10 5.317210005628681e-10 2.221669912338257 -0.733487069606781 -0.208919957280159 -9.112139889204743e-14 4.147109562767197e-14 3.3931996210219417e-13 -58.62619400024414 30.520999908447266 -47.432498931884766 28.2217960357666 -38.927101135253906 -82.07530212402344 0.018835000693798065 3.9297502040863037 -0.5526800155639648 -8.171999743566971e-10 5.148630410900523e-10 1.4382199597928746e-10 -1.4144500015689232e-09 8.892809266747292e-10 2.527859865875115e-10 -8.172069687617523e-10 5.148659831810676e-10 1.4384499147368501e-10 -7.730909824371338 5.474879741668701 -0.4173140823841095 -8.17198975155975e-10 5.148630410900523e-10 1.438289903843426e-10 -2.9055399894714355 0.9651829600334167 -0.10290199518203735 -8.172089671631966e-10 5.148630410900523e-10 1.438289903843426e-10 -10.27859878540039 0.73180091381073 -0.025912316516041756 -8.171960330649597e-10 5.148639847796233e-10 1.4382299518000963e-10 -2.221669912338257 -0.733487069606781 0.208919957280159 -2.0321699480147914e-16 0.0 -3.8825099822884138e-19 -103.56100463867188 -42.112998962402344 -108.47599792480469 -178.05198669433594 34.75929641723633 -177.61099243164062 -26.026199340820312 64.93659973144531 39.49269104003906 2.0321699480147914e-16 0.0 3.8825099822884138e-19 1.861649990081787 -30.02960205078125 12.293499946594238 0.6479500532150269 56.95199966430664 -1.9665900468826294 3.764570474624634 -18.671598434448242 6.633500099182129
4.790199922018941 76.48380262764246 1.0810000060336078 1.1478997468948364 15.633099555969238 -5.235001564025879 -9.650540351867676 17.034299850463867 7.675769805908203 2.5041496753692627 -16.974201202392578 2.2843399047851562 -9.2977294921875 11.475101470947266 -8.2593994140625 5.960299968719482 -11.86340045928955 -14.661401748657227 -0.0 0.0 -0.0 -0.0 0.0 -0.0 -2.0293398309435134e-13 1.2983200398022227e-13 1.0634299430628547e-13 69.19529724121094 -5.739919662475586 60.54679870605469 -16.848899841308594 -55.133201599121094 121.5009994506836 -3.4448797702789307 -47.11879348754883 -8.405498504638672 -8.909969428927411e-10 5.943570080546579e-10 4.937850128783339e-10 -1.5589599611232074e-09 1.012559924795653e-09 8.214199875844486e-10 -8.909920024002815e-10 5.943570080546579e-10 4.937730224696679e-10 7.730909824371338 5.474879741668701 0.4173140823841095 -8.90995943692019e-10 5.943540104524914e-10 4.937850128783339e-10 2.9055399894714355 0.9651829600334167 0.10290199518203735 -8.909910031995594e-10 5.943550651643648e-10 4.93786955768627e-10 10.27859878540039 0.73180091381073 0.025912316516041756 -8.909979420934633e-10 5.943560088539357e-10 4.937960040862777e-10 2.221669912338257 -0.733487069606781 -0.208919957280159 -2.029819996980653e-13 1.2983100109321272e-13 1.0604300911768588e-13 -56.43130111694336 40.97419738769531 -51.64679718017578 28.1238956451416 -39.6858024597168 -83.37339782714844 0.059051793068647385 7.068710803985596 -0.9980890154838562 2.8882696234688865e-10 4.049439672471067e-10 -8.91839935235339e-10 4.925599927929625e-10 7.092249565410214e-10 -1.5421000032489474e-09 2.888179695403892e-10 4.0496397901712555e-10 -8.918280003378243e-10 -7.730909824371338 5.474879741668701 -0.4173140823841095 2.888259909017421e-10 4.049379997983493e-10 -8.918359939436016e-10 -2.9055399894714355 0.9651829600334167 -0.10290199518203735 2.8881899649668696e-10 4.049359736413294e-10 -8.918419891479346e-10 -10.27859878540039 0.73180091381073 -0.025912316516041756 2.8883301306237286e-10 4.049379997983493e-10 -8.918479843522675e-10 -2.221669912338257 -0.733487069606781 0.208919957280159 -2.0321699480147914e-16 0.0 -3.8825099822884138e-19 -105.05899810791016 -46.041099548339844 -116.7929916381836 -178.2769775390625 33.91349792480469 -176.0699920654297 -22.114498138427734 67.16380310058594 34.93809509277344 2.0321699480147914e-16 0.0 3.8825099822884138e-19 -0.8244489431381226 -26.369495391845703 12.474398612976074 0.5248199105262756 55.0 -2.038459539413452 4.756070137023926 -18.243099212646484 8.257389068603516
5.551399905663679 76.76110147775582 1.2740000077402103 2.6294000148773193 15.262402534484863 -6.113993167877197 -10.259100914001465 17.7997989654541 9.700610160827637 2.53983998298645 -17.05459976196289 2.8706300258636475 -9.3126802444458 12.923501014709473 -10.14999771118164 7.754509449005127 -13.016397476196289 -18.28270149230957 -0.0 0.0 -0.0 -0.0 0.0 -0.0 -1.2028298821374628e-13 1.1702699356450075e-13 -8.508529980837815e-14 67.65079498291016 1.4896601438522339 65.61109161376953 -20.615299224853516 -53.23260498046875 112.71900177001953 -2.845790147781372 -42.212608337402344 -7.344619274139404 -1.5322300095377273e-09 5.32631938554573e-10 4.2051898074824123e-10 -2.6541100428545406e-09 9.230439190766049e-10 6.657889795036454e-10 -1.5322200175305056e-09 5.326309948650021e-10 4.205069903395753e-10 7.730909824371338 5.474879741668701 0.4173140823841095 -1.5322300095377273e-09 5.326279972628356e-10 4.2052097914968556e-10 2.9055399894714355 0.9651829600334167 0.10290199518203735 -1.5322200175305056e-09 5.326289964635578e-10 4.205230053067055e-10 10.27859878540039 0.73180091381073 0.025912316516041756 -1.5322300095377273e-09 5.326309948650021e-10 4.205329695583515e-10 2.221669912338257 -0.733487069606781 -0.208919957280159 -1.203030052963558e-13 1.1702899933851985e-13 -8.5356695940942e-14 -49.233001708984375 49.187007904052734 -59.8422966003418 28.119796752929688 -39.73570251464844 -83.44450378417969 0.07764118909835815 7.815480709075928 -1.1055099964141846 7.850329830638714e-10 6.450489448139862e-11 -1.411269878737187e-09 1.3506799012574788e-09 1.1958699308589615e-10 -2.4426201061800157e-09 7.850249894580941e-10 6.452589851324575e-11 -1.4112599977522677e-09 -7.730909824371338 5.474879741668701 -0.4173140823841095 7.850319838631492e-10 6.449889233817174e-11 -1.4112599977522677e-09 -2.9055399894714355 0.9651829600334167 -0.10290199518203735 7.850249894580941e-10 6.449710210354453e-11 -1.411269878737187e-09 -10.27859878540039 0.73180091381073 -0.025912316516041756 7.850389782682043e-10 6.449860090462778e-11 -1.4112798707444085e-09 -2.221669912338257 -0.733487069606781 0.208919957280159 -2.0321699480147914e-16 0.0 -3.8825099822884138e-19 -108.58000946044922 -48.43429946899414 -122.75399780273438 -178.3610076904297 33.73159408569336 -175.39700317382812 -19.25589942932129 68.10441589355469 31.434396743774414 2.0321699480147914e-16 0.0 3.8825099822884138e-19 -2.64382004737854 -24.095699310302734 13.144499778747559 0.44459402561187744 53.92210006713867 -2.1231801509857178 5.095730304718018 -18.173500061035156 8.694999694824219
